<svg xmlns="http://www.w3.org/2000/svg" viewBox="0 0 41 48.06"><defs><style>.cls-1{fill:#343434;stroke:#bb9842;stroke-miterlimit:10;}.cls-2{fill:#fff;}</style></defs><title>marker</title><g id="Layer_1" data-name="Layer 1"><path class="cls-1" d="M4,20.47C4,31.52,20.47,47.53,24,47.53s20-16,20-27.06a20,20,0,0,0-40,0Z" transform="translate(-3.5 0.03)"/></g><g id="Layer_2" data-name="Layer 2"><path class="cls-2" d="M21.33,31.61c-1.22-6.56-2.67-15.06,1.25-21C23.73,8.85,26,6.9,27.22,9.82s-1.08,5.91-2.09,8.39C33,16.28,34.39,25.5,27.27,29c-2.45,1.2-5.61,1.2-8.31.94-1.82-.17-7-1.67-7-1.29s4.41,1,4.34,1.45c0,.26-3.61-.86-3.62-.53s3.45.83,3.45,1.32c0,.23-2.28-.55-2.34-.18s4.3,1,4.83,1a18.61,18.61,0,0,0,10.93-1.62,8.75,8.75,0,0,0,4.76-8.26c-.14-3.19-2.44-6.07-5.82-6,1.9-3.51,2.44-11.18-3.76-10-4.26.79-6.05,6.64-6.58,10.29-.75,5.19,0,10.61.87,15.75.15.82,1.39,7.12,1.82,7s-.71-3.37-.33-3.42,1.29,4.81,1.73,4.71-1.49-5.94-1.07-6S23,41.33,23.48,41.2s-2-8.62-2.15-9.59" transform="translate(-3.5 0.03)"/></g></svg>